name rise42.5664peak47.7979fall81.9185.mot
datacolumns 19
datarows 55
range 0.000000 0.089997
endheader
time	ground_force1_vx	ground_force1_vy	ground_force1_vz	ground_force1_px	ground_force1_py	ground_force1_pz	ground_force2_vx	ground_force2_vy	ground_force2_vz	ground_force2_px	ground_force2_py	ground_force2_pz	ground_torque1_x	ground_torque1_y	ground_torque1_z	ground_torque2_x	ground_torque2_y	ground_torque2_z	
0.000000	0.000000	0.000000	0.000000	0.000000	0.000000	0.000000	61.413918	821.014359	-65.893608	0.250946	0.000000	-0.097546	0.000000	0.000000	0.000000	0.000000	-24.980594	0.000000	
0.001669	0.000000	0.000000	0.000000	0.000000	0.000000	0.000000	61.036492	820.245249	-65.572692	0.250389	0.000000	-0.097409	0.000000	0.000000	0.000000	0.000000	-24.642634	0.000000	
0.003329	0.000000	0.000000	0.000000	0.000000	0.000000	0.000000	60.662210	819.482787	-65.254641	0.249802	0.000000	-0.097270	0.000000	0.000000	0.000000	0.000000	-24.305853	0.000000	
0.004998	0.000000	0.000000	0.000000	0.000000	0.000000	0.000000	60.288987	818.721363	-64.938867	0.249185	0.000000	-0.097131	0.000000	0.000000	0.000000	0.000000	-23.970518	0.000000	
0.006662	0.000000	0.000000	0.000000	0.000000	0.000000	0.000000	59.914232	817.954252	-64.624372	0.248539	0.000000	-0.096992	0.000000	0.000000	0.000000	0.000000	-23.636522	0.000000	
0.008334	0.000000	0.000000	0.000000	0.000000	0.000000	0.000000	59.535092	817.174167	-64.309896	0.247863	0.000000	-0.096853	0.000000	0.000000	0.000000	0.000000	-23.303499	0.000000	
0.010006	0.000000	0.000000	0.000000	0.000000	0.000000	0.000000	59.148684	816.373768	-63.994060	0.247159	0.000000	-0.096714	0.000000	0.000000	0.000000	0.000000	-22.970925	0.000000	
0.011673	0.000000	0.000000	0.000000	0.000000	0.000000	0.000000	58.752289	815.546109	-63.675502	0.246425	0.000000	-0.096575	0.000000	0.000000	0.000000	0.000000	-22.638221	0.000000	
0.013328	0.000000	0.000000	0.000000	0.000000	0.000000	0.000000	58.343515	814.684983	-63.352975	0.245663	0.000000	-0.096436	0.000000	0.000000	0.000000	0.000000	-22.304838	0.000000	
0.014995	0.000000	0.000000	0.000000	0.000000	0.000000	0.000000	57.920409	813.785172	-63.025440	0.244874	0.000000	-0.096299	0.000000	0.000000	0.000000	0.000000	-21.970327	0.000000	
0.016665	0.000000	0.000000	0.000000	0.000000	0.000000	0.000000	57.481518	812.842589	-62.692109	0.244057	0.000000	-0.096162	0.000000	0.000000	0.000000	0.000000	-21.634384	0.000000	
0.018333	0.000000	0.000000	0.000000	0.000000	0.000000	0.000000	57.025921	811.854323	-62.352480	0.243214	0.000000	-0.096026	0.000000	0.000000	0.000000	0.000000	-21.296882	0.000000	
0.019996	0.000000	0.000000	0.000000	0.000000	0.000000	0.000000	56.553204	810.818600	-62.006332	0.242346	0.000000	-0.095891	0.000000	0.000000	0.000000	0.000000	-20.957880	0.000000	
0.021666	0.000000	0.000000	0.000000	0.000000	0.000000	0.000000	56.063422	809.734680	-61.653712	0.241453	0.000000	-0.095758	0.000000	0.000000	0.000000	0.000000	-20.617617	0.000000	
0.023334	0.000000	0.000000	0.000000	0.000000	0.000000	0.000000	55.557027	808.602705	-61.294902	0.240537	0.000000	-0.095626	0.000000	0.000000	0.000000	0.000000	-20.276494	0.000000	
0.024999	0.000000	0.000000	0.000000	0.000000	0.000000	0.000000	55.034792	807.423524	-60.930370	0.239599	0.000000	-0.095496	0.000000	0.000000	0.000000	0.000000	-19.935046	0.000000	
0.026668	0.000000	0.000000	0.000000	0.000000	0.000000	0.000000	54.497722	806.198504	-60.560731	0.238639	0.000000	-0.095367	0.000000	0.000000	0.000000	0.000000	-19.593911	0.000000	
0.028331	0.000000	0.000000	0.000000	0.000000	0.000000	0.000000	53.946976	804.929353	-60.186691	0.237659	0.000000	-0.095241	0.000000	0.000000	0.000000	0.000000	-19.253794	0.000000	
0.030003	0.000000	0.000000	0.000000	0.000000	0.000000	0.000000	53.383790	803.617956	-59.809004	0.236661	0.000000	-0.095116	0.000000	0.000000	0.000000	0.000000	-18.915434	0.000000	
0.031667	0.000000	0.000000	0.000000	0.000000	0.000000	0.000000	52.809413	802.266239	-59.428433	0.235645	0.000000	-0.094993	0.000000	0.000000	0.000000	0.000000	-18.579575	0.000000	
0.033330	0.000000	0.000000	0.000000	0.000000	0.000000	0.000000	52.225057	800.876067	-59.045719	0.234613	0.000000	-0.094873	0.000000	0.000000	0.000000	0.000000	-18.246938	0.000000	
0.034998	0.000000	0.000000	0.000000	0.000000	0.000000	0.000000	51.631862	799.449171	-58.661553	0.233567	0.000000	-0.094755	0.000000	0.000000	0.000000	0.000000	-17.918203	0.000000	
0.036661	0.000000	0.000000	0.000000	0.000000	0.000000	0.000000	51.030874	797.987107	-58.276564	0.232508	0.000000	-0.094639	0.000000	0.000000	0.000000	0.000000	-17.593995	0.000000	
0.038334	0.000000	0.000000	0.000000	0.000000	0.000000	0.000000	50.423035	796.491245	-57.891309	0.231438	0.000000	-0.094525	0.000000	0.000000	0.000000	0.000000	-17.274872	0.000000	
0.039998	0.000000	0.000000	0.000000	0.000000	0.000000	0.000000	49.809186	794.962781	-57.506274	0.230358	0.000000	-0.094414	0.000000	0.000000	0.000000	0.000000	-16.961327	0.000000	
0.041670	0.000000	0.000000	0.000000	0.000000	0.000000	0.000000	49.190076	793.402763	-57.121876	0.229270	0.000000	-0.094305	0.000000	0.000000	0.000000	0.000000	-16.653784	0.000000	
0.043332	0.000000	0.000000	0.000000	0.000000	0.000000	0.000000	48.566376	791.812130	-56.738477	0.228176	0.000000	-0.094199	0.000000	0.000000	0.000000	0.000000	-16.352606	0.000000	
0.045003	0.000000	0.000000	0.000000	0.000000	0.000000	0.000000	47.938698	790.191766	-56.356386	0.227077	0.000000	-0.094095	0.000000	0.000000	0.000000	0.000000	-16.058098	0.000000	
0.046661	0.000000	0.000000	0.000000	0.000000	0.000000	0.000000	47.307613	788.542538	-55.975879	0.225976	0.000000	-0.093994	0.000000	0.000000	0.000000	0.000000	-15.770520	0.000000	
0.048330	0.000000	0.000000	0.000000	0.000000	0.000000	0.000000	46.673669	786.865350	-55.597208	0.224872	0.000000	-0.093895	0.000000	0.000000	0.000000	0.000000	-15.490088	0.000000	
0.049999	0.000000	0.000000	0.000000	0.000000	0.000000	0.000000	46.037410	785.161175	-55.220610	0.223770	0.000000	-0.093799	0.000000	0.000000	0.000000	0.000000	-15.216987	0.000000	
0.051666	0.000000	0.000000	0.000000	0.000000	0.000000	0.000000	45.399382	783.431091	-54.846322	0.222669	0.000000	-0.093705	0.000000	0.000000	0.000000	0.000000	-14.951379	0.000000	
0.053330	0.000000	0.000000	0.000000	0.000000	0.000000	0.000000	44.760147	781.676299	-54.474579	0.221572	0.000000	-0.093613	0.000000	0.000000	0.000000	0.000000	-14.693402	0.000000	
0.054997	0.000000	0.000000	0.000000	0.000000	0.000000	0.000000	44.120283	779.898141	-54.105629	0.220480	0.000000	-0.093524	0.000000	0.000000	0.000000	0.000000	-14.443182	0.000000	
0.056665	0.000000	0.000000	0.000000	0.000000	0.000000	0.000000	43.480389	778.098101	-53.739727	0.219395	0.000000	-0.093438	0.000000	0.000000	0.000000	0.000000	-14.200831	0.000000	
0.058329	0.000000	0.000000	0.000000	0.000000	0.000000	0.000000	42.841083	776.277802	-53.377143	0.218318	0.000000	-0.093353	0.000000	0.000000	0.000000	0.000000	-13.966452	0.000000	
0.060000	0.000000	0.000000	0.000000	0.000000	0.000000	0.000000	42.202993	774.439001	-53.018156	0.217251	0.000000	-0.093271	0.000000	0.000000	0.000000	0.000000	-13.740134	0.000000	
0.061663	0.000000	0.000000	0.000000	0.000000	0.000000	0.000000	41.566755	772.583570	-52.663051	0.216195	0.000000	-0.093191	0.000000	0.000000	0.000000	0.000000	-13.521959	0.000000	
0.063336	0.000000	0.000000	0.000000	0.000000	0.000000	0.000000	40.933002	770.713487	-52.312123	0.215151	0.000000	-0.093113	0.000000	0.000000	0.000000	0.000000	-13.311993	0.000000	
0.064995	0.000000	0.000000	0.000000	0.000000	0.000000	0.000000	40.302360	768.830810	-51.965663	0.214121	0.000000	-0.093038	0.000000	0.000000	0.000000	0.000000	-13.110292	0.000000	
0.066665	0.000000	0.000000	0.000000	0.000000	0.000000	0.000000	39.675436	766.937667	-51.623962	0.213106	0.000000	-0.092964	0.000000	0.000000	0.000000	0.000000	-12.916893	0.000000	
0.068334	0.000000	0.000000	0.000000	0.000000	0.000000	0.000000	39.052814	765.036235	-51.287306	0.212106	0.000000	-0.092892	0.000000	0.000000	0.000000	0.000000	-12.731818	0.000000	
0.069999	0.000000	0.000000	0.000000	0.000000	0.000000	0.000000	38.435046	763.128725	-50.955969	0.211124	0.000000	-0.092822	0.000000	0.000000	0.000000	0.000000	-12.555070	0.000000	
0.071663	0.000000	0.000000	0.000000	0.000000	0.000000	0.000000	37.822650	761.217372	-50.630213	0.210158	0.000000	-0.092754	0.000000	0.000000	0.000000	0.000000	-12.386632	0.000000	
0.073334	0.000000	0.000000	0.000000	0.000000	0.000000	0.000000	37.216103	759.304422	-50.310286	0.209211	0.000000	-0.092688	0.000000	0.000000	0.000000	0.000000	-12.226468	0.000000	
0.075002	0.000000	0.000000	0.000000	0.000000	0.000000	0.000000	36.615841	757.392124	-49.996420	0.208282	0.000000	-0.092624	0.000000	0.000000	0.000000	0.000000	-12.074520	0.000000	
0.076667	0.000000	0.000000	0.000000	0.000000	0.000000	0.000000	36.022256	755.482725	-49.688829	0.207373	0.000000	-0.092561	0.000000	0.000000	0.000000	0.000000	-11.930712	0.000000	
0.078335	0.000000	0.000000	0.000000	0.000000	0.000000	0.000000	35.435696	753.578464	-49.387709	0.206483	0.000000	-0.092500	0.000000	0.000000	0.000000	0.000000	-11.794947	0.000000	
0.079998	0.000000	0.000000	0.000000	0.000000	0.000000	0.000000	34.856464	751.681569	-49.093240	0.205613	0.000000	-0.092440	0.000000	0.000000	0.000000	0.000000	-11.667113	0.000000	
0.081666	0.000000	0.000000	0.000000	0.000000	0.000000	0.000000	34.284823	749.794258	-48.805582	0.204763	0.000000	-0.092382	0.000000	0.000000	0.000000	0.000000	-11.547077	0.000000	
0.083336	0.000000	0.000000	0.000000	0.000000	0.000000	0.000000	33.720993	747.918731	-48.524881	0.203932	0.000000	-0.092325	0.000000	0.000000	0.000000	0.000000	-11.434694	0.000000	
0.085002	0.000000	0.000000	0.000000	0.000000	0.000000	0.000000	33.165155	746.057175	-48.251263	0.203121	0.000000	-0.092270	0.000000	0.000000	0.000000	0.000000	-11.329804	0.000000	
0.086669	0.000000	0.000000	0.000000	0.000000	0.000000	0.000000	32.617452	744.211759	-47.984842	0.202329	0.000000	-0.092216	0.000000	0.000000	0.000000	0.000000	-11.232235	0.000000	
0.088336	0.000000	0.000000	0.000000	0.000000	0.000000	0.000000	32.077994	742.384632	-47.725712	0.201555	0.000000	-0.092163	0.000000	0.000000	0.000000	0.000000	-11.141805	0.000000	
0.089997	0.000000	0.000000	0.000000	0.000000	0.000000	0.000000	31.546852	740.577921	-47.473957	0.200800	0.000000	-0.092112	0.000000	0.000000	0.000000	0.000000	-11.058321	0.000000	
